#!OML:ASF F:\VICON\USERDATA\INSTALL\rory3\rory3.ASF
:FULLY-SPECIFIED
:DEGREES
173
root 0.136653 17.7858 14.7559 -2.71975 -4.28325 -3.80463
lowerback 8.62786 2.08805 4.19972
upperback -0.0613746 3.23929 0.75797
thorax -4.71479 1.511 -1.96983
lowerneck -15.8266 -3.12965 -1.64311
upperneck 21.1549 -4.26957 1.40073
head 9.34502 -1.96752 0.215621
rclavicle 2.6766e-014 -8.34896e-015
rhumerus -23.3098 -14.1128 -81.226
rradius 31.7225
rwrist -0.604568
rhand -19.5357 22.7879
rfingers 7.12502
rthumb 6.78803 -7.08333
lclavicle 2.6766e-014 -8.34896e-015
lhumerus -40.8381 15.1338 75.0209
lradius 17.7334
lwrist -0.510384
lhand -26.5109 32.873
lfingers 7.12502
lthumb 0.0523072 62.8527
rfemur 7.44326 2.11816 27.1966
rtibia 46.0921
rfoot 4.88556 5.16624
rtoes -2.18495
lfemur -22.4905 -3.51315 -18.5219
ltibia 29.0509
lfoot -4.35937 -5.04835
ltoes -2.89035
174
root 0.156916 17.8056 14.9662 -2.93645 -4.37335 -3.67521
lowerback 8.80149 2.10002 4.14377
upperback -0.0749621 3.25842 0.745092
thorax -4.82776 1.51853 -1.96281
lowerneck -15.9626 -3.13528 -1.69066
upperneck 21.4775 -4.28154 1.44377
head 9.48548 -1.96863 0.232254
rclavicle -4.91355e-014 -1.27222e-014
rhumerus -23.6387 -14.5006 -81.0792
rradius 31.8992
rwrist -1.15686
rhand -18.6452 21.6995
rfingers 7.12502
rthumb 7.6476 -8.14219
lclavicle -4.91355e-014 -1.27222e-014
lhumerus -41.0829 14.4403 75.3101
lradius 18.5269
lwrist 0.419794
lhand -24.8838 25.837
lfingers 7.12502
lthumb 1.62377 55.8106
rfemur 6.25673 1.95631 26.7535
rtibia 48.5958
rfoot 8.24316 4.86585
rtoes 3.08017
lfemur -21.862 -3.21666 -18.9169
ltibia 29.6872
lfoot -4.97953 -5.59042
ltoes 1.65219
175
root 0.173979 17.8245 15.1691 -3.0892 -4.5191 -3.42651
lowerback 9.02102 2.15311 3.93867
upperback -0.129687 3.31809 0.69347
thorax -5.01317 1.54708 -1.92131
lowerneck -15.9424 -3.15793 -1.69227
upperneck 21.5424 -4.31578 1.447
head 9.50516 -1.98409 0.229062
rclavicle -1.79384e-014 -9.93923e-015
rhumerus -24.1506 -14.9863 -80.8691
rradius 31.4212
rwrist -0.723864
rhand -18.701 22.9844
rfingers 7.12502
rthumb 7.59379 -6.85932
lclavicle -1.79384e-014 -9.93923e-015
lhumerus -41.2501 13.6706 75.7465
lradius 19.6278
lwrist 1.56502
lhand -24.9964 25.2257
lfingers 7.12502
lthumb 1.51505 55.2001
rfemur 4.89262 1.88217 26.2293
rtibia 51.2141
rfoot 11.7193 4.76602
rtoes 5.87653
lfemur -21.2195 -2.94385 -19.4247
ltibia 30.1504
lfoot -5.343 -5.9818
ltoes 4.54016
176
root 0.180968 17.829 15.3569 -3.21587 -4.71666 -3.28624
lowerback 9.18523 2.15405 3.64948
upperback 0.0326726 3.29507 0.7696
thorax -4.95699 1.54681 -1.68128
lowerneck -16.3263 -3.14333 -1.6866
upperneck 21.4642 -4.25125 1.29108
head 9.54406 -1.96885 0.177059
rclavicle -8.13192e-015 -2.30093e-014
rhumerus -24.2773 -15.1665 -80.8264
rradius 31.2942
rwrist -0.602945
rhand -18.6908 23.1077
rfingers 7.12502
rthumb 7.60361 -6.73566
lclavicle -8.13192e-015 -2.30093e-014
lhumerus -40.955 13.425 76.1446
lradius 20.5251
lwrist 2.26695
lhand -26.2957 32.2721
lfingers 7.12502
lthumb 0.260144 62.2517
rfemur 3.38692 1.94975 25.9525
rtibia 53.9258
rfoot 14.0124 4.75298
rtoes 5.68259
lfemur -20.5464 -2.74459 -19.7458
ltibia 30.3926
lfoot -5.40316 -5.61803
ltoes 3.23506
177
root 0.187079 17.8363 15.5502 -3.3554 -4.90326 -2.77495
lowerback 9.22099 2.16643 2.99506
upperback 0.201783 3.23575 0.71406
thorax -4.83515 1.53668 -1.36331
lowerneck -16.6064 -3.11303 -1.64892
upperneck 21.3737 -4.18287 1.16808
head 9.55934 -1.9466 0.133475
rclavicle -8.47688e-015 -1.4064e-014
rhumerus -24.302 -15.3349 -80.854
rradius 31.1606
rwrist -0.516777
rhand -18.4615 23.0091
rfingers 7.12502
rthumb 7.82496 -6.82606
lclavicle -8.47688e-015 -1.4064e-014
lhumerus -40.6366 12.7719 76.647
lradius 21.0617
lwrist 3.81139
lhand -27.7003 32.0218
lfingers 7.12502
lthumb -1.09642 61.9987
rfemur 1.85969 1.99229 25.2255
rtibia 56.6656
rfoot 15.3933 4.17265
rtoes 6.18986
lfemur -19.7337 -2.71119 -20.4604
ltibia 30.4498
lfoot -5.64869 -4.97149
ltoes 2.05048
178
root 0.20291 17.848 15.7515 -3.41571 -5.03189 -2.01657
lowerback 9.01891 2.20615 2.31812
upperback 0.250568 3.19867 0.486122
thorax -4.6955 1.53442 -1.20649
lowerneck -16.2705 -3.09677 -1.58301
upperneck 21.0746 -4.17217 1.14947
head 9.39007 -1.9431 0.125315
rclavicle -2.09512e-014 7.19352e-015
rhumerus -24.4756 -15.5769 -80.8874
rradius 30.8326
rwrist -0.324515
rhand -18.5403 22.8122
rfingers 7.12502
rthumb 7.74889 -7.02582
lclavicle -2.09512e-014 7.19352e-015
lhumerus -40.4931 11.8787 77.0354
lradius 21.447
lwrist 5.46526
lhand -28.9906 22.4157
lfingers 7.12502
lthumb -2.34261 52.3826
rfemur 0.204462 1.9921 24.1461
rtibia 59.3258
rfoot 16.2598 3.07981
rtoes 6.61078
lfemur -18.94 -2.897 -21.4635
ltibia 30.4521
lfoot -6.08115 -4.7294
ltoes 4.45153
179
root 0.218502 17.8595 15.9492 -3.44093 -4.97465 -1.113
lowerback 8.78298 2.18001 1.49147
upperback 0.26172 3.06066 0.207168
thorax -4.58369 1.48339 -1.00565
lowerneck -15.9372 -3.01689 -1.50074
upperneck 20.8027 -4.09948 1.22469
head 9.23265 -1.89873 0.154198
rclavicle -3.83126e-014 -7.70291e-016
rhumerus -24.5915 -15.6989 -80.9752
rradius 30.4081
rwrist -0.200039
rhand -18.534 22.582
rfingers 7.12502
rthumb 7.75491 -7.25584
lclavicle -3.83126e-014 -7.70291e-016
lhumerus -40.2197 11.7133 76.8822
lradius 21.544
lwrist 5.45079
lhand -29.1844 17.4842
lfingers 7.12502
lthumb -2.52981 47.4489
rfemur -1.43874 1.71504 22.8783
rtibia 61.8761
rfoot 16.2436 1.81823
rtoes 7.32026
lfemur -18.1735 -3.12175 -22.6607
ltibia 30.3226
lfoot -6.42735 -4.3953
ltoes 5.48821
180
root 0.226896 17.864 16.1306 -3.58579 -4.91336 -0.860892
lowerback 9.18654 2.12403 1.27828
upperback 0.206027 2.96658 0.109737
thorax -4.87616 1.43651 -0.994967
lowerneck -16.0451 -3.0013 -1.48313
upperneck 20.8411 -4.09712 1.28774
head 9.26694 -1.8882 0.171174
rclavicle 1.75066e-014 4.07509e-015
rhumerus -24.7965 -15.8406 -81.0316
rradius 30.0565
rwrist -0.247656
rhand -18.3076 22.4771
rfingers 7.12502
rthumb 7.97345 -7.35249
lclavicle 1.75066e-014 4.07509e-015
lhumerus -39.8093 11.7952 76.5234
lradius 21.5101
lwrist 4.47493
lhand -28.1565 19.1277
lfingers 7.12502
lthumb -1.53709 49.1019
rfemur -2.95403 1.34979 22.462
rtibia 64.2489
rfoot 15.5364 0.450041
rtoes 10.188
lfemur -17.3113 -3.28305 -23.1074
ltibia 30.2352
lfoot -7.23646 -3.60639
ltoes 2.30029
181
root 0.233645 17.8692 16.3054 -3.63743 -4.86685 -0.645145
lowerback 9.48512 2.06957 1.03189
upperback 0.128617 2.87217 0.105157
thorax -5.13887 1.39228 -0.864203
lowerneck -16.0212 -3.01344 -1.54667
upperneck 20.8913 -4.08014 1.20784
head 9.27931 -1.89424 0.156458
rclavicle -8.69159e-015 2.16303e-014
rhumerus -25.0341 -15.9092 -80.9327
rradius 29.5614
rwrist 0.0473708
rhand -18.4364 22.7888
rfingers 7.12502
rthumb 7.84915 -7.04548
lclavicle -8.69159e-015 2.16303e-014
lhumerus -39.5442 11.3295 76.7146
lradius 21.8051
lwrist 4.75853
lhand -28.2286 19.5819
lfingers 7.12502
lthumb -1.60673 49.5556
rfemur -4.69665 0.94333 22.1554
rtibia 66.4817
rfoot 14.2035 -0.53663
rtoes 12.2256
lfemur -16.6716 -3.45294 -23.4697
ltibia 30.2274
lfoot -7.80514 -3.19537
ltoes 0.898596
182
root 0.236074 17.8746 16.4857 -3.6403 -4.80087 -0.540042
lowerback 9.35201 1.95102 0.778046
upperback 0.166076 2.6894 0.187082
thorax -5.04408 1.31042 -0.605976
lowerneck -15.7561 -2.88637 -1.51134
upperneck 20.7567 -3.86448 1.00034
head 9.17505 -1.81678 0.112052
rclavicle -1.04071e-014 8.63471e-015
rhumerus -25.0971 -15.9877 -80.8828
rradius 29.0807
rwrist 0.44994
rhand -18.422 22.9762
rfingers 7.12502
rthumb 7.86308 -6.85761
lclavicle -1.04071e-014 8.63471e-015
lhumerus -39.2367 10.6065 77.2155
lradius 22.1586
lwrist 6.18018
lhand -29.5826 17.91
lfingers 7.12502
lthumb -2.91436 47.8698
rfemur -6.32284 0.439993 21.9996
rtibia 68.4656
rfoot 12.6602 -0.826554
rtoes 12.2848
lfemur -16.1098 -3.48718 -23.7055
ltibia 30.3194
lfoot -7.99126 -3.44224
ltoes 2.79456
183
root 0.241959 17.8839 16.6767 -3.77799 -4.86701 -0.389111
lowerback 9.38774 1.91522 0.58213
upperback 0.222402 2.62038 0.187216
thorax -5.01491 1.28135 -0.486883
lowerneck -15.7819 -2.77966 -1.50471
upperneck 20.9148 -3.72237 1.00834
head 9.23278 -1.74802 0.130071
rclavicle -1.34723e-015 1.38901e-014
rhumerus -25.2299 -16.4644 -80.7852
rradius 28.5651
rwrist 1.18373
rhand -18.5771 23.1965
rfingers 7.12502
rthumb 7.71336 -6.64287
lclavicle -1.34723e-015 1.38901e-014
lhumerus -38.9807 9.79111 77.5926
lradius 22.7205
lwrist 6.89078
lhand -30.2361 17.1983
lfingers 7.12502
lthumb -3.54549 47.1486
rfemur -7.62542 0.0431749 21.7414
rtibia 70.1425
rfoot 11.1156 -1.16597
rtoes 11.5404
lfemur -15.1977 -3.42111 -24.0154
ltibia 30.3466
lfoot -8.54225 -3.28776
ltoes 3.74552
